grf
version=1
nRows=31
nColumns=19
inDegrees=yes
endheader
time	ground_force_1_vx	ground_force_1_vy	ground_force_1_vz	ground_force_1_px	ground_force_1_py	ground_force_1_pz	ground_moment_1_mx	ground_moment_1_my	ground_moment_1_mz	ground_force_2_vx	ground_force_2_vy	ground_force_2_vz	ground_force_2_px	ground_force_2_py	ground_force_2_pz	ground_moment_2_mx	ground_moment_2_my	ground_moment_2_mz
0.000000	53.518870	1620.361192	-490.920462	0.137741	0.000000	-0.747181	-0.000000	12.655536	0.000000	-69.339821	1154.250652	396.037877	0.247111	0.000000	-1.598468	0.000000	-16.397797	-0.000000
0.001000	53.898919	1620.126713	-490.506327	0.136910	0.000000	-0.745310	-0.000000	12.554986	0.000000	-68.899989	1153.546608	396.091221	0.248493	0.000000	-1.600594	0.000000	-16.350170	-0.000000
0.002000	54.281786	1619.868588	-490.077146	0.138207	0.000000	-0.746512	-0.000000	12.453529	0.000000	-68.442287	1152.832709	396.152352	0.247237	0.000000	-1.599171	0.000000	-16.301086	-0.000000
0.003000	54.664723	1619.585994	-489.634677	0.138422	0.000000	-0.746377	-0.000000	12.351789	0.000000	-67.968666	1152.114289	396.221704	0.248451	0.000000	-1.599879	0.000000	-16.250865	-0.000000
0.004000	55.045211	1619.277696	-489.180766	0.138233	0.000000	-0.748338	-0.000000	12.250373	0.000000	-67.481157	1151.395999	396.299525	0.247062	0.000000	-1.599200	0.000000	-16.199768	-0.000000
0.005000	55.420958	1618.942711	-488.717328	0.138454	0.000000	-0.747056	-0.000000	12.149838	0.000000	-66.981782	1150.682262	396.385845	0.248104	0.000000	-1.598951	0.000000	-16.148021	-0.000000
0.006000	55.789927	1618.580834	-488.246332	0.138691	0.000000	-0.747251	-0.000000	12.050678	0.000000	-66.472494	1149.976748	396.480379	0.247320	0.000000	-1.598655	0.000000	-16.095830	-0.000000
0.007000	56.150394	1618.192617	-487.769756	0.138661	0.000000	-0.746544	-0.000000	11.953294	0.000000	-65.955213	1149.281758	396.582478	0.247698	0.000000	-1.599202	0.000000	-16.043391	-0.000000
0.008000	56.500957	1617.779109	-487.289488	0.138283	0.000000	-0.746642	-0.000000	11.857987	0.000000	-65.431855	1148.598599	396.691163	0.246757	0.000000	-1.597943	0.000000	-15.990879	-0.000000
0.009000	56.840469	1617.341823	-486.807199	0.139097	0.000000	-0.746562	-0.000000	11.764972	0.000000	-64.904289	1147.928277	396.805164	0.248213	0.000000	-1.599632	0.000000	-15.938455	-0.000000
0.010000	57.167987	1616.882826	-486.324267	0.138818	0.000000	-0.748607	-0.000000	11.674399	0.000000	-64.374304	1147.271519	396.922939	0.246842	0.000000	-1.599326	0.000000	-15.886267	-0.000000
0.011000	57.482798	1616.404741	-485.841772	0.139055	0.000000	-0.745201	-0.000000	11.586375	0.000000	-63.843549	1146.628087	397.042733	0.247678	0.000000	-1.599165	0.000000	-15.834457	-0.000000
0.012000	57.784394	1615.910727	-485.360554	0.138950	0.000000	-0.747070	-0.000000	11.501010	0.000000	-63.313447	1145.996130	397.162700	0.247399	0.000000	-1.599237	0.000000	-15.783162	-0.000000
0.013000	58.072355	1615.404223	-484.881347	0.139685	0.000000	-0.744379	-0.000000	11.418436	0.000000	-62.785106	1145.372398	397.280946	0.247511	0.000000	-1.599084	0.000000	-15.732492	-0.000000
0.014000	58.346267	1614.888303	-484.404941	0.139111	0.000000	-0.746888	-0.000000	11.338781	0.000000	-62.259275	1144.753096	397.395470	0.247144	0.000000	-1.599152	0.000000	-15.682514	-0.000000
0.015000	58.605707	1614.365132	-483.932195	0.139857	0.000000	-0.746150	-0.000000	11.262128	0.000000	-61.736406	1144.134415	397.504136	0.247962	0.000000	-1.599419	0.000000	-15.633253	-0.000000
0.016000	58.850274	1613.835830	-483.463826	0.139470	0.000000	-0.746764	-0.000000	11.188488	0.000000	-61.216753	1143.512341	397.604712	0.247123	0.000000	-1.599963	0.000000	-15.584694	-0.000000
0.017000	59.079646	1613.300474	-483.000223	0.139634	0.000000	-0.745321	-0.000000	11.117776	0.000000	-60.700444	1142.882372	397.694930	0.246826	0.000000	-1.598787	0.000000	-15.536783	-0.000000
0.018000	59.293608	1612.758123	-482.541527	0.139768	0.000000	-0.746865	-0.000000	11.049827	0.000000	-60.187579	1142.239895	397.772510	0.247529	0.000000	-1.599537	0.000000	-15.489456	-0.000000
0.019000	59.492047	1612.207032	-482.087791	0.140022	0.000000	-0.746418	-0.000000	10.984427	0.000000	-59.678308	1141.580628	397.835159	0.247496	0.000000	-1.599284	0.000000	-15.442669	-0.000000
0.020000	59.674895	1611.645019	-481.639018	0.139774	0.000000	-0.745686	-0.000000	10.921326	0.000000	-59.172856	1140.900468	397.880561	0.247399	0.000000	-1.599127	0.000000	-15.396396	-0.000000
0.021000	59.842082	1611.069622	-481.195161	0.139965	0.000000	-0.745848	-0.000000	10.860233	0.000000	-58.671566	1140.195212	397.906403	0.248863	0.000000	-1.601358	0.000000	-15.350620	-0.000000
0.022000	59.993470	1610.478171	-480.756143	0.140118	0.000000	-0.746794	-0.000000	10.800840	0.000000	-58.174894	1139.460503	397.910450	0.246975	0.000000	-1.599444	0.000000	-15.305317	-0.000000
0.023000	60.128821	1609.868062	-480.321886	0.140408	0.000000	-0.745665	-0.000000	10.742830	0.000000	-57.683330	1138.691792	397.890638	0.248422	0.000000	-1.598345	0.000000	-15.260423	-0.000000
0.024000	60.247810	1609.236747	-479.892377	0.139671	0.000000	-0.745206	-0.000000	10.685874	0.000000	-57.197308	1137.884341	397.845063	0.247305	0.000000	-1.599082	-0.000000	-15.215820	-0.000000
0.025000	60.350060	1608.581416	-479.467743	0.140496	0.000000	-0.746487	0.000000	10.629636	0.000000	-56.717181	1137.033485	397.771800	0.248075	0.000000	-1.599878	-0.000000	-15.171352	-0.000000
0.026000	60.435231	1607.899263	-479.048299	0.140551	0.000000	-0.746210	0.000000	10.573791	0.000000	-56.243289	1136.134896	397.668767	0.247194	0.000000	-1.600027	-0.000000	-15.126856	-0.000000
0.027000	60.503163	1607.188035	-478.634536	0.140946	0.000000	-0.746329	0.000000	10.518034	0.000000	-55.776014	1135.184521	397.533806	0.247372	0.000000	-1.599790	-0.000000	-15.082166	-0.000000
0.028000	60.553942	1606.446076	-478.227071	0.140374	0.000000	-0.745456	0.000000	10.462065	0.000000	-55.315766	1134.178372	397.364857	0.246895	0.000000	-1.599688	-0.000000	-15.037112	-0.000000
0.029000	60.587805	1605.671979	-477.826563	0.140591	0.000000	-0.745375	0.000000	10.405577	0.000000	-54.862953	1133.112719	397.160050	0.247138	0.000000	-1.599438	-0.000000	-14.991526	-0.000000
0.030000	60.604968	1604.864211	-477.433623	0.140834	0.000000	-0.745538	0.000000	10.348290	0.000000	-54.417975	1131.984658	396.917722	0.247279	0.000000	-1.599958	-0.000000	-14.945256	-0.000000
